<?xml version="1.0" encoding="UTF-8"?>
<svg id="a" xmlns="http://www.w3.org/2000/svg" viewBox="0 0 382.41 511.15">
  <path d="m327.79,63.32c2.2.2,4,.5,6.2.8.4,14.4.6,28.7.3,42.9-.4,19.1-4.5,37.4-12.9,54.8-10.5-.3-20.3-.5-30-1.1,7.1-18.5,11.8-37.1,11.1-56.8-.4-11.8-8-19.8-19.8-19.8H48.49c-.1-6.3-.1-12.7-.2-19.5,2.6-.7,5.2-1.3,7.8-1.3,90.3,0,180.8,0,271.7,0h0Z" style="fill: #d7cfd5;"/>
  <path d="m291.19,161.12c9.8.2,19.6.5,29.8.9-3.7,10-8.4,19.3-15.7,27.2-4.1,4.4-7.4,9.4-11.5,13.8-15.1,16-33,27.8-54.6,35.2-21,1-33.6,16.6-30.6,37.5,1.8,11.2,3.8,22,5.4,32.8,2.3,15.5,11.1,24.6,25.9,28.1-10.3,0-20.3.6-30.2-.5-14.1-1.5-23.9-11.5-26.2-25.5-2-11.8-4-23.6-5.9-35.4-2.8-18.2,7.9-33.4,25.7-36.6,2.3-.4,4.7-.5,6.8-1.3,37.2-14.1,63.8-39.3,80.4-75.7.4-.4.5-.4.7-.5h0Z" style="fill: #0c9;"/>
  <path d="m333.29,448.12c-1.8.3-3.5.5-5.6.9-8.1-.1-15.9-.2-24.1-1-.7-15.8-.3-31-1.5-46-2.1-26.8-16.4-45.8-40-57.9-6-3.1-12.6-5-18.5-7.5,14.3-.3,28.1-.3,41.9,4,12.9,4.8,23.4,12.2,32,22.5,8.2,9.8,12.7,21.2,15.6,33.5.4.9.8,1.9.8,3.4-.4,16.4-.5,32.3-.6,48.1h0Z" style="fill: #0c9;"/>
  <path d="m333.09,396.02c-3-11.7-7.4-23.2-15.6-33-8.6-10.3-19.2-17.8-32.2-22.8-14.1-25.3-33.4-44.3-58.3-57.5-5.8-3.1-12.2-5-18.4-7.5-3-20.4,9.6-36,30.2-36.9-2.6,2.5-6.3,4.5-8.6,7.6-9.1,12.1-.6,24.8,12.1,29.3,17.6,6.3,33,16.2,46.6,29.1,11.8,11.1,21.8,23.5,29.2,37.8,7.1,13.7,12.2,28.3,14.1,43.8.4,3.1.7,6.4.9,10.1h0Z" style="fill: #d7d0d5;"/>
  <path d="m290.49,161.52c-75.7.1-151.1.1-226.6.1-.7,0-1.3.1-2.3.4-3.7-9.6-7.5-19.2-10.2-29.2-4.1-15.6-3.2-31.7-3-48.2,78.1-.5,156.2-.5,234.3-.5,11.8,0,19.4,8,19.8,19.8.7,19.7-4,38.3-11.1,56.8-.4.4-.6.5-.9.8h0Z" style="fill: #efedef;"/>
  <path d="m143.39,238.62c20-.6,34.1,16.7,30.5,37.4-1.9,11-3.8,22-5.6,33-2.8,17.2-14.4,27.3-31.9,27.8-9,.2-18.1-.5-26.9.9-31.2,5-53.2,26.8-59.9,58.4,1.3-8.9,2.4-18.3,4.5-27.4,4.6-19.3,14.1-36.4,26.6-51.3,14.8-17.7,32.6-31.8,54.5-40.4,5.8-2.3,12.3-4.7,16.2-9.1,9.1-9.9,4.2-25.3-8-29.3h0Z" style="fill: #efeded;"/>
  <path d="m48.39,448.12c.4,0,.6,0,.8-.4,0-14.8.1-29.2,0-43.6,0-1.4-.5-2.8-.9-3.7-.1,16.2-.1,31.9.1,47.7h0Z" style="fill: #0f9;"/>
  <path d="m302.09,402.02c-2.1-26.8-16.4-45.8-40-57.9-6-3.1-12.6-5-18.9-7.5-.7-.1-1.5-.2-3-.1-10.7.1-20.7.6-30.6-.4-14.1-1.5-23.9-11.5-26.2-25.5-2-11.8-4-23.6-5.9-35.4-2.8-18.2,7.9-33.4,25.7-36.6,2.3-.4,4.7-.5,6.8-1.3,37.2-14.1,63.8-39.3,80.2-75.5-75.5,0-150.9-.1-226.4-.1-.7,0-1.3.1-2.3.8.4,2.4.8,4.3,1.7,6,8,14.5,17.6,27.8,29.8,39.2,14.7,13.8,31.1,24.4,50.2,30.7,20.1-.3,34.2,17,30.7,37.7-1.9,11-3.8,22-5.6,33-2.8,17.2-14.4,27.3-31.9,27.8-9,.2-18.1-.5-26.9.9-31.2,5-53.2,26.8-60.1,58.6-.6,1.6-.8,2.5-1,3.5.3,1.4.8,2.8.8,4.2,0,14.4,0,28.7.4,43.7,84.8.5,169.2.6,253.5.1-.2-15.7.1-30.9-1-45.9h0Z" style="fill: #0f9;"/>
  <path d="m243.59,336.52c-1.1,0-1.9-.1-3-.2-15.6-3.2-24.3-12.4-26.6-27.9-1.6-10.8-3.6-21.6-5.4-32.8,6.1,2,12.6,4,18.4,7,24.9,13.2,44.3,32.2,58.1,57.3-13.4-3.7-27.2-3.7-41.5-3.4h0Z" style="fill: #efedee;"/>
  <path d="m21.69,511.12c-3-1.3-7.8-4-12.3-8.9-1.7-1.9-6.1-7.3-8.1-14.1-4.5-15.3,3.1-33,19.4-39.1,4.9-1.8,12.4-1.9,27.2-1.9,3.9,0,6.8.1,7.2.1,10.1.3,81.7.6,272.4,1.1,1.3.7,2.4,1.2,3.5,1.6,20.7,8,26.8,35.5,10.8,50.9-4.4,4.3-10.4,6.9-15.6,10.3H21.69Z" style="fill: #1f75fe;"/>
  <path d="m326.19,511.12c2.2-1.1,5.2-2.9,8.7-5.2,3.1-2.1,5.9-4.2,6.9-5.1,6-5.1,11.6-18.4,7.7-30.9-4.2-13-15.7-18.7-18.5-20.1-1.6-.8-3-1.3-4-1.6,4.8,0,10.6-.1,16.6-.1,10.5-.1,10.7-.1,11.5,0,8.7.9,19.8,7.1,24.8,18.2,6,13.4.1,27.4-6.6,35.1-4,4.6-8.5,7.3-11.5,8.7-1.1.3-2.6.6-4.5.8-.9.1-1.5.1-1.8.1-7.6.2-11.4.1-11.4.1-3.2-.1-8.6-.2-17.9,0h0Z" style="fill: #36f;"/>
  <path d="m47.89,63.62c-1.8.1-4.6.1-7.8,0-5.8-.2-10.6-.8-12.1-1.1C9.49,59.42,2.69,45.12,2.69,45.12-3.01,33.12.89,18.52,9.39,9.72,15.59,3.22,23.09,1.12,26.59.42c49-.1,97.9-.2,146.8-.2h153c.9.1,1.8.2,2.7.2,1.9,1.4,3.2,2.6,4.8,3.4,19.1,10.2,23,35.5,7.4,50.5-3.7,3.6-8.7,5.9-13.5,8.9-7.4,0-137.1.1-182.1.1-15.6,0-31.1.3-46.7,0-8.1-.1-22.8-.5-43,0-3.4.2-6.2.3-8.1.3h0Z" style="fill: #1f75fe;"/>
  <path d="m327.79,63.32c1.7-.9,4-2.2,6.6-3.9,1.8-1.2,4.7-3,6.9-5,5.4-4.8,7.5-10.9,8.1-12.7,2.6-7.8,1.9-16.4-1.7-23.8-3.7-7.5-9.9-11.5-13.8-14.1-2.6-1.7-4.9-2.9-6.6-3.6,2.1,0,5.4,0,9.3-.1h8.3c3.8,0,7.5,0,11.2-.1,2-.1,5.1.1,8.5,1.4,7.7,2.8,11.4,9.2,13.1,12.2,1.7,2.9,5.9,11,4.4,20.9-2.4,16-18.2,28.5-29.9,28.9-1.5,0-4.1-.1-9.2-.2-4.2-.1-7-.1-10.7-.1-1.9.1-3.5.1-4.5.2h0Z" style="fill: #36f;"/>
</svg>